<?xml version="1.0" encoding="UTF-8"?>
<svg width="19px" height="19px" viewBox="0 0 19 19" version="1.1" xmlns="http://www.w3.org/2000/svg" xmlns:xlink="http://www.w3.org/1999/xlink">
    <!-- Generator: Sketch 64 (93537) - https://sketch.com -->
    <title>ic_Chuva</title>
    <desc>Created with Sketch.</desc>
    <defs>
        <path d="M6.73425948,15.437352 C7.1714849,15.437352 7.52592614,15.7917933 7.52592614,16.2290187 L7.52592614,16.2290187 L7.52592614,17.812352 C7.52592614,18.2495775 7.1714849,18.6040187 6.73425948,18.6040187 C6.29703405,18.6040187 5.94259281,18.2495775 5.94259281,17.812352 L5.94259281,17.812352 L5.94259281,16.2290187 C5.94259281,15.7917933 6.29703405,15.437352 6.73425948,15.437352 Z M13.0675928,15.437352 C13.5048182,15.437352 13.8592595,15.7917933 13.8592595,16.2290187 L13.8592595,16.2290187 L13.8592595,17.812352 C13.8592595,18.2495775 13.5048182,18.6040187 13.0675928,18.6040187 C12.6303674,18.6040187 12.2759261,18.2495775 12.2759261,17.812352 L12.2759261,17.812352 L12.2759261,16.2290187 C12.2759261,15.7917933 12.6303674,15.437352 13.0675928,15.437352 Z M9.90092614,13.8540187 C10.3381516,13.8540187 10.6925928,14.2084599 10.6925928,14.6456854 L10.6925928,14.6456854 L10.6925928,16.2290187 C10.6925928,16.6662441 10.3381516,17.0206854 9.90092614,17.0206854 C9.46370072,17.0206854 9.10925948,16.6662441 9.10925948,16.2290187 L9.10925948,16.2290187 L9.10925948,14.6456854 C9.10925948,14.2084599 9.46370072,13.8540187 9.90092614,13.8540187 Z M6.73425948,11.4790187 C7.1714849,11.4790187 7.52592614,11.8334599 7.52592614,12.2706854 L7.52592614,12.2706854 L7.52592614,13.8540187 C7.52592614,14.2912441 7.1714849,14.6456854 6.73425948,14.6456854 C6.29703405,14.6456854 5.94259281,14.2912441 5.94259281,13.8540187 L5.94259281,13.8540187 L5.94259281,12.2706854 C5.94259281,11.8334599 6.29703405,11.4790187 6.73425948,11.4790187 Z M13.0675928,11.4790187 C13.5048182,11.4790187 13.8592595,11.8334599 13.8592595,12.2706854 L13.8592595,12.2706854 L13.8592595,13.8540187 C13.8592595,14.2912441 13.5048182,14.6456854 13.0675928,14.6456854 C12.6303674,14.6456854 12.2759261,14.2912441 12.2759261,13.8540187 L12.2759261,13.8540187 L12.2759261,12.2706854 C12.2759261,11.8334599 12.6303674,11.4790187 13.0675928,11.4790187 Z M7.26130923,0.00133823139 L7.5260059,0.0113503802 C10.4133357,0.17393732 12.8934564,2.06069908 13.8430377,4.74985235 L13.8430377,4.74985235 L14.2560244,4.74985257 C16.5031414,4.75249672 18.4409616,6.32943451 18.9001879,8.52912845 C19.3594142,10.7288224 18.2143866,12.949361 16.1560244,13.8508526 C15.7555256,14.0262572 15.2886636,13.8437824 15.1132589,13.4432836 C14.9378543,13.0427848 15.1203291,12.5759228 15.5208279,12.4005181 C16.8930694,11.7995237 17.6564212,10.3191647 17.3502703,8.85270206 C17.0441194,7.38623944 15.7522393,6.33494758 14.2550928,6.33318536 L14.2550928,6.33318536 L13.2575928,6.33318536 C12.8966052,6.33318536 12.5813322,6.08898538 12.4910722,5.73946397 C11.888135,3.40465803 9.84457506,1.72775175 7.43698866,1.5921794 C5.02940225,1.45660704 2.81050324,2.89349219 1.94926058,5.14584946 C1.08801793,7.39820672 1.78214864,9.94895844 3.66596808,11.4543077 C4.00753464,11.7272516 4.06316432,12.2254107 3.79022045,12.5669773 C3.51727657,12.9085439 3.01911744,12.9641735 2.67755088,12.6912297 C0.255497305,10.7557806 -0.636956463,7.47624266 0.470355522,4.58035475 C1.57766751,1.68446684 4.43053767,-0.162956934 7.5260059,0.0113503802 Z" id="path-1"></path>
    </defs>
    <g id="Principal" stroke="none" stroke-width="1" fill="none" fill-rule="evenodd">
        <g id="2.1-Painel" transform="translate(-48.000000, -209.000000)">
            <g id="cloud-snow" transform="translate(48.000000, 209.000000)">
                <mask id="mask-2" fill="white">
                    <use xlink:href="#path-1"></use>
                </mask>
                <use id="Combined-Shape" fill="#000000" fill-rule="nonzero" xlink:href="#path-1"></use>
                <g id="COLOR/-blue" mask="url(#mask-2)" fill="#3C68E3" fill-rule="evenodd">
                    <rect id="Rectangle" x="0" y="0" width="19" height="19"></rect>
                </g>
            </g>
        </g>
    </g>
</svg>