<svg xmlns="http://www.w3.org/2000/svg" viewBox="0 0 24 24" fill="currentColor">
    <path d="M19 17c-1.1 0-2.1-.3-3-1 1.2-1.1 2-2.7 2-4.5 0-3.3-2.7-6-6-6-2.5 0-4.7 1.5-5.6 3.7C5.2 9.8 3 12.3 3 15c0 3.3 2.7 6 6 6h10c2.2 0 4-1.8 4-4s-1.8-4-4-4zM4.2 8.3c1.1-1.4 2.7-2.3 4.5-2.3 3.3 0 6 2.7 6 6 0 .9-.2 1.8-.5 2.5-1.4.2-2.7.7-3.9 1.5C9.8 17 7 15.3 7 12.5c0-1.4.5-2.7 1.3-3.7C7.9 8.5 7 7.8 6.2 7.8 5.1 7.8 4 8.9 4 10s1.1 2.2 2.2 2.2H6c.4 0 .8.3.8.8s-.4.8-.8.8c-2.2 0-4-1.8-4-4 0-1.6 1-3.1 2.2-3.7zm4.1 10.1c0-.4.4-.8.8-.8s.8.4.8.8v.8c0 .4-.4.8-.8.8s-.8-.4-.8-.8v-.8zm4 0c0-.4.4-.8.8-.8s.8.4.8.8v.8c0 .4-.4.8-.8.8s-.8-.4-.8-.8v-.8zm4 0c0-.4.4-.8.8-.8s.8.4.8.8v.8c0 .4-.4.8-.8.8s-.8-.4-.8-.8v-.8z"/>
</svg>
